<mxfile host="app.diagrams.net" modified="2021-10-06T14:44:41.117Z" agent="5.0 (Macintosh; Intel Mac OS X 10_15_7) AppleWebKit/537.36 (KHTML, like Gecko) Chrome/94.0.4606.71 Safari/537.36" etag="TjAiqkmf_7rJRmO9uddA" version="15.4.3" type="github">
  <diagram id="qQlJBc6UoEvYpeyHfmSY" name="Page-1">
    <mxGraphModel dx="884" dy="538" grid="1" gridSize="10" guides="1" tooltips="1" connect="1" arrows="1" fold="1" page="1" pageScale="1" pageWidth="850" pageHeight="1100" math="0" shadow="0">
      <root>
        <mxCell id="0" />
        <mxCell id="1" parent="0" />
        <mxCell id="kZ4-gudE9gKMQtWLh49g-6" style="edgeStyle=orthogonalEdgeStyle;rounded=0;orthogonalLoop=1;jettySize=auto;html=1;exitX=1;exitY=0.5;exitDx=0;exitDy=0;" edge="1" parent="1" source="kZ4-gudE9gKMQtWLh49g-1" target="kZ4-gudE9gKMQtWLh49g-5">
          <mxGeometry relative="1" as="geometry" />
        </mxCell>
        <mxCell id="kZ4-gudE9gKMQtWLh49g-12" style="edgeStyle=orthogonalEdgeStyle;rounded=0;orthogonalLoop=1;jettySize=auto;html=1;entryX=0;entryY=0.588;entryDx=0;entryDy=0;entryPerimeter=0;" edge="1" parent="1" source="kZ4-gudE9gKMQtWLh49g-1" target="kZ4-gudE9gKMQtWLh49g-10">
          <mxGeometry relative="1" as="geometry">
            <Array as="points">
              <mxPoint x="490" y="170" />
              <mxPoint x="490" y="327" />
            </Array>
          </mxGeometry>
        </mxCell>
        <mxCell id="kZ4-gudE9gKMQtWLh49g-1" value="OMS" style="rounded=0;whiteSpace=wrap;html=1;" vertex="1" parent="1">
          <mxGeometry x="260" y="140" width="120" height="60" as="geometry" />
        </mxCell>
        <mxCell id="kZ4-gudE9gKMQtWLh49g-4" value="&lt;ul&gt;&lt;li&gt;PUT /order/create . Thi&lt;/li&gt;&lt;li&gt;Get /order&lt;/li&gt;&lt;/ul&gt;&lt;div&gt;&lt;br&gt;&lt;/div&gt;&lt;div&gt;Finite State Machine in Worker Roles.&lt;/div&gt;&lt;div&gt;&lt;br&gt;&lt;/div&gt;&lt;div&gt;OMS-&amp;gt;WorkerA&lt;/div&gt;&lt;div&gt;WorkerA-&amp;gt;WrokerB....&lt;/div&gt;&lt;div&gt;&lt;br&gt;&lt;/div&gt;&lt;div&gt;Rollback?&lt;/div&gt;" style="text;strokeColor=none;fillColor=none;html=1;whiteSpace=wrap;verticalAlign=middle;overflow=hidden;" vertex="1" parent="1">
          <mxGeometry x="630" y="120" width="330" height="110" as="geometry" />
        </mxCell>
        <mxCell id="kZ4-gudE9gKMQtWLh49g-8" style="edgeStyle=orthogonalEdgeStyle;rounded=0;orthogonalLoop=1;jettySize=auto;html=1;entryX=0.5;entryY=0;entryDx=0;entryDy=0;entryPerimeter=0;" edge="1" parent="1" source="kZ4-gudE9gKMQtWLh49g-5" target="kZ4-gudE9gKMQtWLh49g-7">
          <mxGeometry relative="1" as="geometry" />
        </mxCell>
        <mxCell id="kZ4-gudE9gKMQtWLh49g-5" value="" style="sketch=0;outlineConnect=0;fontColor=#232F3E;gradientColor=none;fillColor=#FF4F8B;strokeColor=none;dashed=0;verticalLabelPosition=bottom;verticalAlign=top;align=center;html=1;fontSize=12;fontStyle=0;aspect=fixed;pointerEvents=1;shape=mxgraph.aws4.queue;" vertex="1" parent="1">
          <mxGeometry x="450" y="60" width="78" height="47" as="geometry" />
        </mxCell>
        <mxCell id="kZ4-gudE9gKMQtWLh49g-11" style="edgeStyle=orthogonalEdgeStyle;rounded=0;orthogonalLoop=1;jettySize=auto;html=1;entryX=0;entryY=0;entryDx=0;entryDy=27.5;entryPerimeter=0;" edge="1" parent="1" source="kZ4-gudE9gKMQtWLh49g-7" target="kZ4-gudE9gKMQtWLh49g-10">
          <mxGeometry relative="1" as="geometry" />
        </mxCell>
        <mxCell id="kZ4-gudE9gKMQtWLh49g-7" value="" style="verticalLabelPosition=bottom;html=1;verticalAlign=top;align=center;strokeColor=none;fillColor=#00BEF2;shape=mxgraph.azure.worker_roles;" vertex="1" parent="1">
          <mxGeometry x="560" y="110" width="55" height="45" as="geometry" />
        </mxCell>
        <mxCell id="kZ4-gudE9gKMQtWLh49g-9" value="Text" style="text;html=1;align=center;verticalAlign=middle;resizable=0;points=[];autosize=1;strokeColor=none;fillColor=none;" vertex="1" parent="1">
          <mxGeometry x="520" y="220" width="40" height="20" as="geometry" />
        </mxCell>
        <mxCell id="kZ4-gudE9gKMQtWLh49g-10" value="RDBMS" style="shape=cylinder3;whiteSpace=wrap;html=1;boundedLbl=1;backgroundOutline=1;size=15;" vertex="1" parent="1">
          <mxGeometry x="600" y="280" width="60" height="80" as="geometry" />
        </mxCell>
      </root>
    </mxGraphModel>
  </diagram>
</mxfile>
